<mxfile host="app.diagrams.net" modified="2021-11-07T09:48:38.260Z" agent="5.0 (Windows NT 10.0; Win64; x64) AppleWebKit/537.36 (KHTML, like Gecko) Chrome/95.0.4638.69 Safari/537.36" etag="H-Gqr-PlN99IPCDNW-yr" version="15.0.6" type="github">
  <diagram id="pAx_lfvB6iBGS43vm__F" name="Page-1">
    <mxGraphModel dx="1483" dy="1916" grid="1" gridSize="10" guides="1" tooltips="1" connect="1" arrows="1" fold="1" page="1" pageScale="1" pageWidth="827" pageHeight="1169" math="0" shadow="0">
      <root>
        <mxCell id="0" />
        <mxCell id="1" parent="0" />
        <mxCell id="B53M1LOZ8ksXV3AffY3u-2" value="&lt;h1 style=&quot;font-size: 8px&quot;&gt;&lt;font style=&quot;font-size: 8px&quot;&gt;Giser changes the world&lt;/font&gt;&lt;/h1&gt;" style="text;html=1;resizable=0;autosize=1;align=center;verticalAlign=middle;points=[];fillColor=none;strokeColor=none;rounded=0;fontFamily=Times New Roman;labelBorderColor=none;fontSize=8;" vertex="1" parent="1">
          <mxGeometry x="397" y="-1100" width="140" height="30" as="geometry" />
        </mxCell>
        <mxCell id="B53M1LOZ8ksXV3AffY3u-4" value="" style="endArrow=classic;html=1;fontFamily=Verdana;fontSize=11;fontColor=#000099;strokeColor=#000099;" edge="1" parent="1">
          <mxGeometry width="50" height="50" relative="1" as="geometry">
            <mxPoint x="400" y="-1095.42" as="sourcePoint" />
            <mxPoint x="1221.4285714285713" y="-1096" as="targetPoint" />
            <Array as="points">
              <mxPoint x="420" y="-1095.42" />
            </Array>
          </mxGeometry>
        </mxCell>
        <mxCell id="B53M1LOZ8ksXV3AffY3u-5" value="" style="shape=image;imageAspect=0;aspect=fixed;verticalLabelPosition=bottom;verticalAlign=top;fontFamily=Times New Roman;fontSize=8;fontColor=#000000;image=data:image/svg+xml,PHN2ZyB4bWxucz0iaHR0cDovL3d3dy53My5vcmcvMjAwMC9zdmciIHhtbG5zOnhsaW5rPSJodHRwOi8vd3d3LnczLm9yZy8xOTk5L3hsaW5rIiB0PSIxNjM2Mjc4MzM4MjA4IiBjbGFzcz0iaWNvbiIgdmlld0JveD0iMS42MjUyODgwMDk2NDM1NTQ3IDMuMjUwNzkxNTQ5NjgyNjE3IDEwNDUuMzkwMzgwODU5Mzc1IDEwMTguNzQ5OTM4OTY0ODQzOCIgdmVyc2lvbj0iMS4xIiBwLWlkPSI3NjU1IiB3aWR0aD0iMTA0NS4zOTAzODA4NTkzNzUiIGhlaWdodD0iMTAxOC43NDk5Mzg5NjQ4NDM4Ij48ZGVmcz48c3R5bGUgdHlwZT0idGV4dC9jc3MiLz48L2RlZnM+PHBhdGggZD0iTTkzNC42MDMxNzUgMTU3LjY2MzQ5MmwtMTM5Ljc4NDEyNy0xMzkuNzg0MTI3Yy0xOS41MDQ3NjItMTkuNTA0NzYyLTUwLjM4NzMwMi0xOS41MDQ3NjItNjguMjY2NjY3IDBsLTIwMy4xNzQ2MDMgMjAzLjE3NDYwM2MtMTkuNTA0NzYyIDE5LjUwNDc2Mi0xOS41MDQ3NjIgNTAuMzg3MzAyIDAgNjguMjY2NjY3bDU1LjI2MzQ5MiA1NS4yNjM0OTItMjcuNjMxNzQ2IDI3LjYzMTc0Ni0xNy44NzkzNjUtMTcuODc5MzY1Yy0yNi4wMDYzNDktMjYuMDA2MzQ5LTYwLjEzOTY4My0zNy4zODQxMjctOTIuNjQ3NjE5LTM3LjM4NDEyNy00My44ODU3MTQtMzUuNzU4NzMtMTAwLjc3NDYwMy00MC42MzQ5MjEtMTMzLjI4MjU0LTguMTI2OTg0LTMyLjUwNzkzNyAzMi41MDc5MzctMjcuNjMxNzQ2IDg5LjM5NjgyNSA4LjEyNjk4NCAxMzMuMjgyNTQgMCAzNC4xMzMzMzMgMTEuMzc3Nzc4IDY2LjY0MTI3IDM3LjM4NDEyNyA5Mi42NDc2MTlsMTcuODc5MzY1IDE3Ljg3OTM2NS0yNy42MzE3NDYgMjcuNjMxNzQ2LTU1LjI2MzQ5Mi01NS4yNjM0OTJjLTE5LjUwNDc2Mi0xOS41MDQ3NjItNTAuMzg3MzAyLTE5LjUwNDc2Mi02OC4yNjY2NjcgMGwtMjAzLjE3NDYwMyAyMDMuMTc0NjAzYy0xOS41MDQ3NjIgMTkuNTA0NzYyLTE5LjUwNDc2MiA1MC4zODczMDIgMCA2OC4yNjY2NjZsMTM5Ljc4NDEyNyAxMzkuNzg0MTI3YzE5LjUwNDc2MiAxOS41MDQ3NjIgNTAuMzg3MzAyIDE5LjUwNDc2MiA2OC4yNjY2NjcgMGwyMDMuMTc0NjAzLTIwMy4xNzQ2MDNjMTkuNTA0NzYyLTE5LjUwNDc2MiAxOS41MDQ3NjItNTAuMzg3MzAyIDAtNjguMjY2NjY2bC00Ny4xMzY1MDgtNDcuMTM2NTA4IDI3LjYzMTc0Ni0yNy42MzE3NDYgNjEuNzY1MDggNjEuNzY1MDc5YzE2LjI1Mzk2OC0zNy4zODQxMjcgNDIuMjYwMzE3LTc0Ljc2ODI1NCA3NC43NjgyNTQtMTA3LjI3NjE5IDMyLjUwNzkzNy0zMi41MDc5MzcgNjkuODkyMDYzLTU4LjUxNDI4NiAxMDcuMjc2MTktNzQuNzY4MjU0bC02MS43NjUwNzktNjEuNzY1MDggMjcuNjMxNzQ2LTI3LjYzMTc0NiA0Ny4xMzY1MDggNDcuMTM2NTA4YzE5LjUwNDc2MiAxOS41MDQ3NjIgNTAuMzg3MzAyIDE5LjUwNDc2MiA2OC4yNjY2NjYgMGwyMDMuMTc0NjAzLTIwMy4xNzQ2MDNjMTcuODc5MzY1LTE3Ljg3OTM2NSAxNy44NzkzNjUtNDguNzYxOTA1LTEuNjI1Mzk2LTY2LjY0MTI3eiIgcC1pZD0iNzY1NiIgZmlsbD0iIzEzMjI3YSIvPjxwYXRoIGQ9Ik04ODcuNDY2NjY3IDUwOC43NDkyMDZjLTMuMjUwNzk0LTMuMjUwNzk0LTguMTI2OTg0LTYuNTAxNTg3LTExLjM3Nzc3OC04LjEyNjk4NCAwIDAtMS42MjUzOTcgMC0xLjYyNTM5Ny0xLjYyNTM5Ny0zLjI1MDc5NC0xLjYyNTM5Ny00Ljg3NjE5LTMuMjUwNzk0LTguMTI2OTg0LTQuODc2MTloLTEuNjI1Mzk3Yy03OS42NDQ0NDQtNDMuODg1NzE0LTIwMy4xNzQ2MDMtMTMuMDAzMTc1LTI5NC4xOTY4MjUgNzguMDE5MDQ4LTkyLjY0NzYxOSA5Mi42NDc2MTktMTIxLjkwNDc2MiAyMTQuNTUyMzgxLTc4LjAxOTA0OCAyOTQuMTk2ODI1IDEuNjI1Mzk3IDMuMjUwNzk0IDMuMjUwNzk0IDQuODc2MTkgNC44NzYxOTEgOC4xMjY5ODQgMCAwIDAgMS42MjUzOTcgMS42MjUzOTYgMS42MjUzOTcgMy4yNTA3OTQgNC44NzYxOSA2LjUwMTU4NyA4LjEyNjk4NCA4LjEyNjk4NSAxMS4zNzc3NzggMzQuMTMzMzMzIDIyLjc1NTU1NiAxMTAuNTI2OTg0LTYuNTAxNTg3IDE5MS43OTY4MjUtNzEuNTE3NDYxbC00MC42MzQ5MjEtMzIuNTA3OTM2Yy00OC43NjE5MDUgMzkuMDA5NTI0LTg3Ljc3MTQyOSA2MC4xMzk2ODMtOTkuMTQ5MjA2IDUwLjM4NzMwMS0xNC42Mjg1NzEtMTQuNjI4NTcxIDM0LjEzMzMzMy04Ny43NzE0MjkgMTA4LjkwMTU4Ny0xNjIuNTM5NjgyczE0Ny45MTExMTEtMTIzLjUzMDE1OSAxNjIuNTM5NjgzLTEwOC45MDE1ODdjOS43NTIzODEgOS43NTIzODEtOC4xMjY5ODQgNDMuODg1NzE0LTQyLjI2MDMxOCA4Ny43NzE0MjhsMzIuNTA3OTM3IDQwLjYzNDkyMWM2MS43NjUwNzktNzguMDE5MDQ4IDg5LjM5NjgyNS0xNDkuNTM2NTA4IDY2LjY0MTI3LTE4Mi4wNDQ0NDV6IiBwLWlkPSI3NjU3IiBmaWxsPSIjMTMyMjdhIi8+PHBhdGggZD0iTTY5Mi40MTkwNDggNzI2LjU1MjM4MWMtMTMuMDAzMTc1LTkuNzUyMzgxLTEzLjAwMzE3NS0yNy42MzE3NDYtMS42MjUzOTctMzkuMDA5NTI0bDQuODc2MTktNC44NzYxOWMxMS4zNzc3NzgtMTEuMzc3Nzc4IDI5LjI1NzE0My05Ljc1MjM4MSAzOS4wMDk1MjQgMS42MjUzOTZsNDMuODg1NzE0IDUzLjYzODA5NmM5Ljc1MjM4MSAxMy4wMDMxNzUgOS43NTIzODEgMzIuNTA3OTM3LTEuNjI1Mzk2IDQzLjg4NTcxNGwxNC42Mjg1NzEtMTQuNjI4NTcxYy0xMS4zNzc3NzggMTEuMzc3Nzc4LTMwLjg4MjU0IDEzLjAwMzE3NS00My44ODU3MTQgMS42MjUzOTZsLTU1LjI2MzQ5Mi00Mi4yNjAzMTd6IiBwLWlkPSI3NjU4IiBmaWxsPSIjMTMyMjdhIi8+PHBhdGggZD0iTTc5Ny42MTQ3MyA3NDguNDYyNzNjLTIwLjY5MTMwMiAwLTM3LjkyMDUwOCAxNy4yMjkyMDYtMzkuMDc0NTQgMzYuNzgyNzMgMCAyMC42OTEzMDIgMTYuMDkxNDI5IDM2Ljc4MjczIDM5LjA3NDU0IDM2Ljc4MjczIDIwLjY5MTMwMiAwIDM5LjA3NDU0LTE2LjA5MTQyOSAzOS4wNzQ1NC0zNi43ODI3My0xLjEzNzc3OC0yMS44NDUzMzMtMTguMzgzMjM4LTM2Ljc4MjczLTM5LjA3NDU0LTM2Ljc4MjczIiBwLWlkPSI3NjU5IiBmaWxsPSIjMTMyMjdhIi8+PHBhdGggZD0iTTg5NC4xNjMzMDIgNzQ4LjQ2MjczYzAgMzQuNDkwOTIxLTEzLjc5OTYxOSA2Ni42NTc1MjQtNDAuMjI4NTcyIDkwLjc5NDY2Ny0yNS4yOTExNzUgMjUuMjkxMTc1LTU4LjYxMTgxIDM3LjkzNjc2Mi05NS40MTA3OTMgMzcuOTM2NzYydjUyLjg3NDE1OGMxMDUuNzQ4MzE3IDAgMTg5LjY1MTMwMi04MS41OTQ5MjEgMTkwLjgwNTMzMy0xODEuNjA1NTg3aC01NS4xNjU5NjgiIHAtaWQ9Ijc2NjAiIGZpbGw9IiMxMzIyN2EiLz48cGF0aCBkPSJNOTkxLjg0OTY1MSA3NDcuMzI0OTUyYzAgMTIxLjgyMzQ5Mi0xMDQuNTk0Mjg2IDIyMS44MTc5MDUtMjMzLjMwOTQ2MSAyMjEuODE3OTA1djUyLjg1NzkwNWMxNTguNjA2MjIyIDAgMjg4LjQ3NTQyOS0xMjIuOTc3NTI0IDI4OC40NzU0MjktMjc0LjY5MjA2NGgtNTUuMTY1OTY4IiBwLWlkPSI3NjYxIiBmaWxsPSIjMTMyMjdhIi8+PC9zdmc+;" vertex="1" parent="1">
          <mxGeometry x="320" y="-1140" width="68.72" height="67" as="geometry" />
        </mxCell>
      </root>
    </mxGraphModel>
  </diagram>
</mxfile>
